<svg width="24" height="24" viewBox="0 0 24 24" fill="none" xmlns="http://www.w3.org/2000/svg">
<path d="M19.5 3C19.8978 3 20.2794 3.15804 20.5607 3.43934C20.842 3.72064 21 4.10218 21 4.5C21 4.89782 20.842 5.27936 20.5607 5.56066C20.2794 5.84196 19.8978 6 19.5 6H4.5C4.10218 6 3.72064 5.84196 3.43934 5.56066C3.15804 5.27936 3 4.89782 3 4.5C3 4.10218 3.15804 3.72064 3.43934 3.43934C3.72064 3.15804 4.10218 3 4.5 3H10.277C10.0983 2.69684 10.0027 2.3519 10 2C10 1.46957 10.2107 0.960859 10.5858 0.585786C10.9609 0.210714 11.4696 0 12 0C12.5304 0 13.0391 0.210714 13.4142 0.585786C13.7893 0.960859 14 1.46957 14 2C14 2.366 13.895 2.705 13.723 3H19.5ZM22 8C22.5304 8 23.0391 8.21071 23.4142 8.58579C23.7893 8.96086 24 9.46957 24 10C24 10.5304 23.7893 11.0391 23.4142 11.4142C23.0391 11.7893 22.5304 12 22 12H21V21.879C21.0001 22.1576 20.9454 22.4334 20.8388 22.6908C20.7323 22.9482 20.576 23.1821 20.3791 23.3791C20.1821 23.576 19.9482 23.7323 19.6908 23.8388C19.4334 23.9454 19.1576 24.0001 18.879 24H5.121C4.84243 24.0001 4.56656 23.9454 4.30917 23.8388C4.05178 23.7323 3.81791 23.576 3.62093 23.3791C3.42395 23.1821 3.26773 22.9482 3.16118 22.6908C3.05464 22.4334 2.99987 22.1576 3 21.879V12H2C1.46957 12 0.960859 11.7893 0.585786 11.4142C0.210714 11.0391 0 10.5304 0 10C0 9.46957 0.210714 8.96086 0.585786 8.58579C0.960859 8.21071 1.46957 8 2 8H22Z" fill="#005FAB"/>
</svg>
