<svg width="30" height="29" viewBox="0 0 30 29" fill="none" xmlns="http://www.w3.org/2000/svg">
<path fill-rule="evenodd" clip-rule="evenodd" d="M8.33336 0.333252C8.59858 0.333252 8.85293 0.438609 9.04047 0.626145C9.22801 0.813682 9.33336 1.06804 9.33336 1.33325V2.35059C10.216 2.33325 11.188 2.33325 12.2574 2.33325H17.7414C18.812 2.33325 19.784 2.33325 20.6667 2.35059V1.33325C20.6667 1.06804 20.7721 0.813682 20.9596 0.626145C21.1471 0.438609 21.4015 0.333252 21.6667 0.333252C21.9319 0.333252 22.1863 0.438609 22.3738 0.626145C22.5613 0.813682 22.6667 1.06804 22.6667 1.33325V2.43592C23.0134 2.46259 23.3418 2.49636 23.652 2.53725C25.2147 2.74792 26.48 3.19059 27.4787 4.18792C28.476 5.18658 28.9187 6.45192 29.1294 8.01459C29.3334 9.53459 29.3334 11.4746 29.3334 13.9253V16.7413C29.3334 19.1919 29.3334 21.1333 29.1294 22.6519C28.9187 24.2146 28.476 25.4799 27.4787 26.4786C26.48 27.4759 25.2147 27.9186 23.652 28.1293C22.132 28.3333 20.192 28.3333 17.7414 28.3333H12.26C9.80936 28.3333 7.86803 28.3333 6.34936 28.1293C4.7867 27.9186 3.52136 27.4759 2.5227 26.4786C1.52536 25.4799 1.0827 24.2146 0.87203 22.6519C0.66803 21.1319 0.66803 19.1919 0.66803 16.7413V13.9253C0.66803 11.4746 0.66803 9.53325 0.87203 8.01459C1.0827 6.45192 1.52536 5.18658 2.5227 4.18792C3.52136 3.19059 4.7867 2.74792 6.34936 2.53725C6.66047 2.49636 6.98892 2.46259 7.3347 2.43592V1.33325C7.3347 1.06827 7.43987 0.814114 7.62712 0.626616C7.81437 0.439118 8.06838 0.333605 8.33336 0.333252ZM6.61336 4.51992C5.27336 4.69992 4.50003 5.03859 3.93603 5.60259C3.37203 6.16659 3.03336 6.93992 2.85336 8.27992C2.82314 8.50659 2.79736 8.74614 2.77603 8.99858H27.224C27.2027 8.74614 27.1769 8.50614 27.1467 8.27859C26.9667 6.93859 26.628 6.16525 26.064 5.60125C25.5 5.03725 24.7267 4.69859 23.3854 4.51859C22.016 4.33459 20.2094 4.33192 17.6667 4.33192H12.3334C9.7907 4.33192 7.98536 4.33592 6.61336 4.51992ZM2.6667 13.9999C2.6667 12.8613 2.6667 11.8706 2.68403 10.9999H27.316C27.3334 11.8706 27.3334 12.8613 27.3334 13.9999V16.6666C27.3334 19.2093 27.3307 21.0159 27.1467 22.3866C26.9667 23.7266 26.628 24.4999 26.064 25.0639C25.5 25.6279 24.7267 25.9666 23.3854 26.1466C22.016 26.3306 20.2094 26.3333 17.6667 26.3333H12.3334C9.7907 26.3333 7.98536 26.3306 6.61336 26.1466C5.27336 25.9666 4.50003 25.6279 3.93603 25.0639C3.37203 24.4999 3.03336 23.7266 2.85336 22.3853C2.66936 21.0159 2.6667 19.2093 2.6667 16.6666V13.9999Z" fill="#005FAB"/>
</svg>
