<svg width="28" height="28" viewBox="0 0 28 28" fill="none" xmlns="http://www.w3.org/2000/svg">
<path d="M14 6.00008C13.6464 6.00008 13.3072 6.14056 13.0572 6.39061C12.8071 6.64065 12.6667 6.97979 12.6667 7.33341V20.6667C12.6667 21.0204 12.8071 21.3595 13.0572 21.6096C13.3072 21.8596 13.6464 22.0001 14 22.0001C14.3536 22.0001 14.6928 21.8596 14.9428 21.6096C15.1929 21.3595 15.3333 21.0204 15.3333 20.6667V7.33341C15.3333 6.97979 15.1929 6.64065 14.9428 6.39061C14.6928 6.14056 14.3536 6.00008 14 6.00008ZM7.33334 14.0001C6.97972 14.0001 6.64058 14.1406 6.39053 14.3906C6.14048 14.6407 6 14.9798 6 15.3334V20.6667C6 21.0204 6.14048 21.3595 6.39053 21.6096C6.64058 21.8596 6.97972 22.0001 7.33334 22.0001C7.68696 22.0001 8.0261 21.8596 8.27615 21.6096C8.5262 21.3595 8.66667 21.0204 8.66667 20.6667V15.3334C8.66667 14.9798 8.5262 14.6407 8.27615 14.3906C8.0261 14.1406 7.68696 14.0001 7.33334 14.0001ZM20.6667 11.3334C20.313 11.3334 19.9739 11.4739 19.7239 11.7239C19.4738 11.974 19.3333 12.3131 19.3333 12.6667V20.6667C19.3333 21.0204 19.4738 21.3595 19.7239 21.6096C19.9739 21.8596 20.313 22.0001 20.6667 22.0001C21.0203 22.0001 21.3594 21.8596 21.6095 21.6096C21.8595 21.3595 22 21.0204 22 20.6667V12.6667C22 12.3131 21.8595 11.974 21.6095 11.7239C21.3594 11.4739 21.0203 11.3334 20.6667 11.3334ZM23.3333 0.666748H4.66667C3.60581 0.666748 2.58839 1.08818 1.83824 1.83832C1.0881 2.58847 0.666672 3.60588 0.666672 4.66675V23.3334C0.666672 24.3943 1.0881 25.4117 1.83824 26.1618C2.58839 26.912 3.60581 27.3334 4.66667 27.3334H23.3333C24.3942 27.3334 25.4116 26.912 26.1618 26.1618C26.9119 25.4117 27.3333 24.3943 27.3333 23.3334V4.66675C27.3333 3.60588 26.9119 2.58847 26.1618 1.83832C25.4116 1.08818 24.3942 0.666748 23.3333 0.666748ZM24.6667 23.3334C24.6667 23.687 24.5262 24.0262 24.2761 24.2762C24.0261 24.5263 23.687 24.6667 23.3333 24.6667H4.66667C4.31305 24.6667 3.97391 24.5263 3.72386 24.2762C3.47381 24.0262 3.33334 23.687 3.33334 23.3334V4.66675C3.33334 4.31313 3.47381 3.97399 3.72386 3.72394C3.97391 3.47389 4.31305 3.33341 4.66667 3.33341H23.3333C23.687 3.33341 24.0261 3.47389 24.2761 3.72394C24.5262 3.97399 24.6667 4.31313 24.6667 4.66675V23.3334Z" fill="#005FAB"/>
</svg>
