<svg width="25" height="24" viewBox="0 0 25 24" fill="none" xmlns="http://www.w3.org/2000/svg">
<circle cx="12.5" cy="12" r="12" fill="white"/>
<path fill-rule="evenodd" clip-rule="evenodd" d="M9.60057 6.8894C8.37951 6.8894 7.38965 7.87927 7.38965 9.10032V14.5222C7.38965 15.7432 8.37951 16.7331 9.60057 16.7331H15.0224C16.2435 16.7331 17.2333 15.7432 17.2333 14.5222V9.10032C17.2333 7.87927 16.2435 6.8894 15.0224 6.8894H9.60057ZM6.38965 9.10032C6.38965 7.32698 7.82723 5.8894 9.60057 5.8894H15.0224C16.7957 5.8894 18.2333 7.32698 18.2333 9.10032V14.5222C18.2333 16.2955 16.7957 17.7331 15.0224 17.7331H9.60057C7.82723 17.7331 6.38965 16.2955 6.38965 14.5222V9.10032ZM12.5795 10.1369C12.2323 10.0855 11.8777 10.1448 11.5662 10.3064C11.2546 10.4681 11.002 10.7239 10.8442 11.0374C10.6864 11.3509 10.6314 11.7062 10.6872 12.0527C10.743 12.3993 10.9066 12.7194 11.1548 12.9676C11.403 13.2158 11.7231 13.3794 12.0696 13.4352C12.4162 13.4909 12.7715 13.436 13.085 13.2782C13.3985 13.1204 13.6543 12.8678 13.816 12.5562C13.9776 12.2447 14.0369 11.8901 13.9854 11.5429C13.9329 11.1887 13.7679 10.8608 13.5147 10.6077C13.2616 10.3545 12.9337 10.1895 12.5795 10.1369ZM11.1056 9.4188C11.6039 9.16027 12.171 9.06543 12.7262 9.14777C13.2926 9.23175 13.817 9.49568 14.2218 9.90055C14.6267 10.3054 14.8906 10.8298 14.9746 11.3962C15.057 11.9514 14.9621 12.5185 14.7036 13.0168C14.4451 13.515 14.036 13.9191 13.5346 14.1714C13.0332 14.4238 12.465 14.5117 11.9108 14.4225C11.3566 14.3333 10.8446 14.0716 10.4477 13.6747C10.0508 13.2778 9.78909 12.7658 9.69991 12.2116C9.61073 11.6574 9.69858 11.0892 9.95095 10.5878C10.2033 10.0864 10.6074 9.67734 11.1056 9.4188ZM15.2939 8.3291C15.0178 8.3291 14.7939 8.55296 14.7939 8.8291C14.7939 9.10524 15.0178 9.3291 15.2939 9.3291H15.2993C15.5755 9.3291 15.7993 9.10524 15.7993 8.8291C15.7993 8.55296 15.5755 8.3291 15.2993 8.3291H15.2939Z" fill="#005FAB"/>
</svg>
