<svg width="28" height="28" viewBox="0 0 28 28" fill="none" xmlns="http://www.w3.org/2000/svg">
<path d="M5.56799 3.67608C10.8053 -0.615923 18.5453 -0.317256 23.4347 4.57208C28.6413 9.77874 28.6413 18.2214 23.4347 23.4281C18.228 28.6347 9.78532 28.6347 4.57865 23.4281C2.98074 21.8325 1.81471 19.8569 1.1901 17.6869C0.565495 15.5168 0.502827 13.2236 1.00799 11.0227L1.11065 10.6054L3.68932 11.2854C3.05004 13.7151 3.28891 16.2924 4.36382 18.5633C5.43874 20.8341 7.2807 22.6526 9.5651 23.6983C11.8495 24.744 14.4297 24.9499 16.851 24.2795C19.2723 23.6092 21.3792 22.1057 22.8006 20.034C24.2219 17.9623 24.8663 15.4554 24.6203 12.9551C24.3743 10.4548 23.2536 8.12157 21.4558 6.36662C19.658 4.61167 17.2984 3.54763 14.7929 3.36203C12.2874 3.17643 9.79677 3.88118 7.75999 5.35208L7.46665 5.57341L8.82265 6.92941L2.69465 8.34274L4.10799 2.21474L5.56799 3.67608ZM15.34 6.00008V8.66674H18.6733V11.3334H11.34C11.1734 11.3331 11.0127 11.3952 10.8896 11.5074C10.7665 11.6197 10.6899 11.7739 10.6748 11.9398C10.6598 12.1058 10.7074 12.2713 10.8083 12.4039C10.9092 12.5364 11.0561 12.6264 11.22 12.6561L11.34 12.6667H16.6733C17.5574 12.6667 18.4052 13.0179 19.0303 13.6431C19.6555 14.2682 20.0067 15.116 20.0067 16.0001C20.0067 16.8841 19.6555 17.732 19.0303 18.3571C18.4052 18.9822 17.5574 19.3334 16.6733 19.3334H15.34V22.0001H12.6733V19.3334H9.33999V16.6667H16.6733C16.8399 16.6671 17.0006 16.605 17.1237 16.4927C17.2468 16.3805 17.3234 16.2262 17.3385 16.0603C17.3535 15.8944 17.3059 15.7289 17.205 15.5963C17.1041 15.4637 16.9573 15.3738 16.7933 15.3441L16.6733 15.3334H11.34C10.4559 15.3334 9.60808 14.9822 8.98296 14.3571C8.35784 13.732 8.00665 12.8841 8.00665 12.0001C8.00665 11.116 8.35784 10.2682 8.98296 9.64305C9.60808 9.01793 10.4559 8.66674 11.34 8.66674H12.6733V6.00008H15.34Z" fill="#005FAB"/>
</svg>
