<svg width="25" height="24" viewBox="0 0 25 24" fill="none" xmlns="http://www.w3.org/2000/svg">
<circle cx="12.5" cy="12" r="12" fill="white"/>
<g clip-path="url(#clip0_4_441)">
<path d="M8 8C8 7.46957 8.21071 6.96086 8.58579 6.58579C8.96086 6.21071 9.46957 6 10 6H12V10H10C9.46957 10 8.96086 9.78929 8.58579 9.41421C8.21071 9.03914 8 8.53043 8 8Z" stroke="#005FAB" stroke-linecap="round" stroke-linejoin="round"/>
<path d="M12 6H14C14.2626 6 14.5227 6.05173 14.7654 6.15224C15.008 6.25275 15.2285 6.40007 15.4142 6.58579C15.5999 6.7715 15.7472 6.99198 15.8478 7.23463C15.9483 7.47728 16 7.73736 16 8C16 8.26264 15.9483 8.52272 15.8478 8.76537C15.7472 9.00802 15.5999 9.2285 15.4142 9.41421C15.2285 9.59993 15.008 9.74725 14.7654 9.84776C14.5227 9.94827 14.2626 10 14 10H12V6Z" stroke="#005FAB" stroke-linecap="round" stroke-linejoin="round"/>
<path d="M12 12C12 11.7374 12.0517 11.4773 12.1522 11.2346C12.2528 10.992 12.4001 10.7715 12.5858 10.5858C12.7715 10.4001 12.992 10.2528 13.2346 10.1522C13.4773 10.0517 13.7374 10 14 10C14.2626 10 14.5227 10.0517 14.7654 10.1522C15.008 10.2528 15.2285 10.4001 15.4142 10.5858C15.5999 10.7715 15.7472 10.992 15.8478 11.2346C15.9483 11.4773 16 11.7374 16 12C16 12.2626 15.9483 12.5227 15.8478 12.7654C15.7472 13.008 15.5999 13.2285 15.4142 13.4142C15.2285 13.5999 15.008 13.7473 14.7654 13.8478C14.5227 13.9483 14.2626 14 14 14C13.7374 14 13.4773 13.9483 13.2346 13.8478C12.992 13.7473 12.7715 13.5999 12.5858 13.4142C12.4001 13.2285 12.2528 13.008 12.1522 12.7654C12.0517 12.5227 12 12.2626 12 12Z" stroke="#005FAB" stroke-linecap="round" stroke-linejoin="round"/>
<path d="M8 16C8 15.4696 8.21071 14.9609 8.58579 14.5858C8.96086 14.2107 9.46957 14 10 14H12V16C12 16.5304 11.7893 17.0391 11.4142 17.4142C11.0391 17.7893 10.5304 18 10 18C9.46957 18 8.96086 17.7893 8.58579 17.4142C8.21071 17.0391 8 16.5304 8 16Z" stroke="#005FAB" stroke-linecap="round" stroke-linejoin="round"/>
<path d="M8 12C8 11.4696 8.21071 10.9609 8.58579 10.5858C8.96086 10.2107 9.46957 10 10 10H12V14H10C9.46957 14 8.96086 13.7893 8.58579 13.4142C8.21071 13.0391 8 12.5304 8 12Z" stroke="#005FAB" stroke-linecap="round" stroke-linejoin="round"/>
</g>
<defs>
<clipPath id="clip0_4_441">
<rect width="8" height="12" fill="white" transform="translate(8 6)"/>
</clipPath>
</defs>
</svg>
